<svg width="48" height="48" viewBox="0 0 48 48" fill="none" xmlns="http://www.w3.org/2000/svg">
<path d="M18 29.25C19.2426 29.25 20.25 28.2426 20.25 27C20.25 25.7574 19.2426 24.75 18 24.75C16.7574 24.75 15.75 25.7574 15.75 27C15.75 28.2426 16.7574 29.25 18 29.25Z" fill="#317BC0"/>
<path d="M30 29.25C31.2426 29.25 32.25 28.2426 32.25 27C32.25 25.7574 31.2426 24.75 30 24.75C28.7574 24.75 27.75 25.7574 27.75 27C27.75 28.2426 28.7574 29.25 30 29.25Z" fill="#317BC0"/>
<path d="M13.9501 14.9999C17.2018 13.9808 20.5925 13.4747 24.0001 13.4999C27.4077 13.4747 30.7984 13.9808 34.0501 14.9999" stroke="#317BC0" stroke-width="2" stroke-linecap="round" stroke-linejoin="round"/>
<path d="M34.0501 33C30.7984 34.0191 27.4077 34.5252 24.0001 34.5C20.5925 34.5252 17.2018 34.0191 13.9501 33" stroke="#317BC0" stroke-width="2" stroke-linecap="round" stroke-linejoin="round"/>
<path d="M29.0624 34.1436L31.3312 38.6436C31.4772 38.9504 31.7254 39.1969 32.0334 39.3406C32.3413 39.4843 32.6897 39.5163 33.0187 39.4311C37.6124 38.3061 41.5874 36.3561 44.4749 33.8436C44.6926 33.6515 44.8507 33.4011 44.9305 33.1219C45.0102 32.8428 45.0083 32.5466 44.9249 32.2686L38.5687 11.0436C38.5068 10.8264 38.3949 10.6267 38.2418 10.4606C38.0888 10.2945 37.8989 10.1667 37.6874 10.0873C35.8916 9.35057 34.0345 8.77334 32.1374 8.36231C31.7729 8.28247 31.3917 8.33966 31.0666 8.52295C30.7415 8.70624 30.4953 9.00281 30.3749 9.35606L28.8937 13.8373" stroke="#317BC0" stroke-width="2" stroke-linecap="round" stroke-linejoin="round"/>
<path d="M18.9375 34.1436L16.6687 38.6436C16.5227 38.9504 16.2744 39.1969 15.9665 39.3406C15.6585 39.4843 15.3102 39.5163 14.9812 39.4311C10.3875 38.3061 6.41245 36.3561 3.52495 33.8436C3.30726 33.6515 3.14918 33.4011 3.06942 33.1219C2.98967 32.8428 2.99159 32.5466 3.07496 32.2686L9.4312 11.0436C9.49306 10.8264 9.60502 10.6267 9.75807 10.4606C9.91113 10.2945 10.101 10.1667 10.3125 10.0873C12.1083 9.35057 13.9654 8.77334 15.8625 8.36231C16.227 8.28247 16.6082 8.33966 16.9333 8.52295C17.2584 8.70624 17.5046 9.00281 17.625 9.35606L19.1062 13.8373" stroke="#317BC0" stroke-width="2" stroke-linecap="round" stroke-linejoin="round"/>
<path d="M18 29.25C19.2426 29.25 20.25 28.2426 20.25 27C20.25 25.7574 19.2426 24.75 18 24.75C16.7574 24.75 15.75 25.7574 15.75 27C15.75 28.2426 16.7574 29.25 18 29.25Z" fill="#317BC0"/>
<path d="M30 29.25C31.2426 29.25 32.25 28.2426 32.25 27C32.25 25.7574 31.2426 24.75 30 24.75C28.7574 24.75 27.75 25.7574 27.75 27C27.75 28.2426 28.7574 29.25 30 29.25Z" fill="#317BC0"/>
<path d="M13.9501 14.9999C17.2018 13.9808 20.5925 13.4747 24.0001 13.4999C27.4077 13.4747 30.7984 13.9808 34.0501 14.9999" stroke="#317BC0" stroke-width="2" stroke-linecap="round" stroke-linejoin="round"/>
<path d="M34.0501 33C30.7984 34.0191 27.4077 34.5252 24.0001 34.5C20.5925 34.5252 17.2018 34.0191 13.9501 33" stroke="#317BC0" stroke-width="2" stroke-linecap="round" stroke-linejoin="round"/>
<path d="M29.0624 34.1436L31.3312 38.6436C31.4772 38.9504 31.7254 39.1969 32.0334 39.3406C32.3413 39.4843 32.6897 39.5163 33.0187 39.4311C37.6124 38.3061 41.5874 36.3561 44.4749 33.8436C44.6926 33.6515 44.8507 33.4011 44.9305 33.1219C45.0102 32.8428 45.0083 32.5466 44.9249 32.2686L38.5687 11.0436C38.5068 10.8264 38.3949 10.6267 38.2418 10.4606C38.0888 10.2945 37.8989 10.1667 37.6874 10.0873C35.8916 9.35057 34.0345 8.77334 32.1374 8.36231C31.7729 8.28247 31.3917 8.33966 31.0666 8.52295C30.7415 8.70624 30.4953 9.00281 30.3749 9.35606L28.8937 13.8373" stroke="#317BC0" stroke-width="2" stroke-linecap="round" stroke-linejoin="round"/>
<path d="M18.9375 34.1436L16.6687 38.6436C16.5227 38.9504 16.2744 39.1969 15.9665 39.3406C15.6585 39.4843 15.3102 39.5163 14.9812 39.4311C10.3875 38.3061 6.41245 36.3561 3.52495 33.8436C3.30726 33.6515 3.14918 33.4011 3.06942 33.1219C2.98967 32.8428 2.99159 32.5466 3.07496 32.2686L9.4312 11.0436C9.49306 10.8264 9.60502 10.6267 9.75807 10.4606C9.91113 10.2945 10.101 10.1667 10.3125 10.0873C12.1083 9.35057 13.9654 8.77334 15.8625 8.36231C16.227 8.28247 16.6082 8.33966 16.9333 8.52295C17.2584 8.70624 17.5046 9.00281 17.625 9.35606L19.1062 13.8373" stroke="#317BC0" stroke-width="2" stroke-linecap="round" stroke-linejoin="round"/>
</svg>
