<svg width="700" height="152" viewBox="0 0 700 152" fill="none" xmlns="http://www.w3.org/2000/svg">
<path d="M367.814 113.707V132.659" stroke="#317BC0" stroke-width="9.47561" stroke-linecap="round" stroke-linejoin="round"/>
<path d="M341.757 90.0183C345.681 90.0183 348.863 86.8364 348.863 82.9116C348.863 78.9868 345.681 75.8049 341.757 75.8049C337.832 75.8049 334.65 78.9868 334.65 82.9116C334.65 86.8364 337.832 90.0183 341.757 90.0183Z" fill="#317BC0"/>
<path d="M393.872 90.0183C397.797 90.0183 400.979 86.8364 400.979 82.9116C400.979 78.9868 397.797 75.8049 393.872 75.8049C389.948 75.8049 386.766 78.9868 386.766 82.9116C386.766 86.8364 389.948 90.0183 393.872 90.0183Z" fill="#317BC0"/>
<path d="M367.814 28.4268V52.1159" stroke="#317BC0" stroke-width="9.47561" stroke-linecap="round" stroke-linejoin="round"/>
<path d="M377.29 104.232L367.814 113.707L358.339 104.232" stroke="#317BC0" stroke-width="9.47561" stroke-linecap="round" stroke-linejoin="round"/>
<path d="M348.863 31.388V52.1159" stroke="#317BC0" stroke-width="9.47561" stroke-linecap="round" stroke-linejoin="round"/>
<path d="M386.766 31.388V52.1159" stroke="#317BC0" stroke-width="9.47561" stroke-linecap="round" stroke-linejoin="round"/>
<path d="M310.96 80.5427V30.3812C310.962 29.4418 311.243 28.524 311.767 27.7445C312.292 26.965 313.036 26.3591 313.905 26.0036C314.775 25.6481 315.731 25.5592 316.651 25.7482C317.571 25.9371 318.415 26.3954 319.074 27.0648L332.044 40.0345C342.405 32.4126 354.951 28.3413 367.814 28.4269C380.677 28.3413 393.223 32.4126 403.584 40.0345L416.554 27.0648C417.213 26.3954 418.057 25.9371 418.977 25.7482C419.897 25.5592 420.853 25.6481 421.723 26.0036C422.592 26.3591 423.336 26.965 423.861 27.7445C424.385 28.524 424.666 29.4418 424.668 30.3812V80.5427C424.668 109.325 399.202 132.659 367.814 132.659C336.426 132.659 310.96 109.325 310.96 80.5427Z" stroke="#317BC0" stroke-width="9.47561" stroke-linecap="round" stroke-linejoin="round"/>
<path d="M7.27201 78.9141V72.9691L42.5174 55.8772V63.972L16.508 75.8354L16.7469 75.3577V76.4989L16.508 76.0478L42.5174 87.8847V96.006L7.27201 78.9141ZM52.7582 48.0744H62.7108L80.015 90.3264H80.6519L97.9562 48.0744H107.909V102.429H100.106V63.0961H99.6017L83.5714 102.349H77.0956L61.0653 63.0696H60.561V102.429H52.7582V48.0744ZM128.069 103.331C125.486 103.331 123.15 102.853 121.062 101.898C118.974 100.925 117.32 99.5181 116.099 97.678C114.896 95.8379 114.295 93.582 114.295 90.9103C114.295 88.6101 114.737 86.7169 115.622 85.2307C116.506 83.7444 117.701 82.5678 119.205 81.7008C120.708 80.8338 122.389 80.1792 124.247 79.7368C126.105 79.2945 127.998 78.9583 129.927 78.7283C132.368 78.4452 134.35 78.2152 135.872 78.0383C137.393 77.8436 138.499 77.534 139.189 77.1094C139.879 76.6847 140.224 75.9947 140.224 75.0392V74.8534C140.224 72.5356 139.57 70.7397 138.26 69.4658C136.969 68.1919 135.04 67.5549 132.475 67.5549C129.803 67.5549 127.697 68.1476 126.158 69.3331C124.636 70.5009 123.584 71.8013 123 73.2345L115.542 71.5359C116.427 69.0588 117.718 67.0595 119.417 65.5378C121.133 63.9985 123.106 62.8838 125.335 62.1938C127.565 61.486 129.909 61.1322 132.368 61.1322C133.996 61.1322 135.721 61.3268 137.544 61.716C139.384 62.0876 141.1 62.7777 142.693 63.7862C144.303 64.7947 145.621 66.2367 146.647 68.1122C147.673 69.97 148.186 72.3852 148.186 75.3577V102.429H140.437V96.8553H140.118C139.605 97.8815 138.835 98.89 137.809 99.8809C136.783 100.872 135.465 101.694 133.855 102.349C132.245 103.004 130.316 103.331 128.069 103.331ZM129.794 96.9614C131.988 96.9614 133.864 96.5279 135.421 95.661C136.995 94.794 138.19 93.6616 139.003 92.2638C139.835 90.8483 140.251 89.3355 140.251 87.7254V82.4705C139.968 82.7536 139.419 83.019 138.605 83.2667C137.809 83.4967 136.898 83.7002 135.872 83.8771C134.846 84.0364 133.846 84.1867 132.873 84.3283C131.9 84.4521 131.086 84.5583 130.431 84.6468C128.892 84.8414 127.485 85.1687 126.211 85.6288C124.955 86.0888 123.946 86.7523 123.186 87.6193C122.442 88.4686 122.071 89.6009 122.071 91.0164C122.071 92.9804 122.796 94.4667 124.247 95.4752C125.698 96.466 127.547 96.9614 129.794 96.9614ZM186.314 71.6155L179.122 72.8895C178.821 71.9694 178.343 71.0936 177.689 70.262C177.052 69.4304 176.185 68.7492 175.088 68.2184C173.991 67.6876 172.62 67.4222 170.974 67.4222C168.727 67.4222 166.851 67.9265 165.348 68.935C163.844 69.9258 163.092 71.2086 163.092 72.7833C163.092 74.1457 163.596 75.2427 164.604 76.0743C165.613 76.9059 167.241 77.5871 169.488 78.1179L175.964 79.6041C179.715 80.4711 182.51 81.807 184.35 83.6117C186.19 85.4164 187.111 87.7608 187.111 90.6449C187.111 93.0866 186.403 95.2629 184.987 97.1738C183.59 99.067 181.634 100.553 179.122 101.633C176.627 102.712 173.734 103.251 170.443 103.251C165.878 103.251 162.154 102.278 159.27 100.332C156.386 98.3681 154.616 95.5813 153.962 91.9719L161.632 90.8041C162.11 92.8035 163.092 94.3163 164.578 95.3425C166.064 96.351 168.002 96.8553 170.39 96.8553C172.991 96.8553 175.07 96.3156 176.627 95.2363C178.184 94.1393 178.963 92.8035 178.963 91.2287C178.963 89.9548 178.485 88.8844 177.53 88.0174C176.592 87.1504 175.15 86.4957 173.203 86.0534L166.303 84.5406C162.499 83.6736 159.686 82.2935 157.863 80.4003C156.058 78.5071 155.156 76.1097 155.156 73.208C155.156 70.8016 155.828 68.6961 157.173 66.8914C158.518 65.0867 160.376 63.68 162.747 62.6715C165.118 61.6453 167.833 61.1322 170.894 61.1322C175.3 61.1322 178.768 62.0876 181.298 63.9985C183.828 65.8917 185.5 68.4307 186.314 71.6155ZM211.875 61.663V68.0326H189.608V61.663H211.875ZM195.58 51.8962H203.515V90.4591C203.515 91.9984 203.745 93.1573 204.205 93.9358C204.665 94.6967 205.258 95.2186 205.984 95.5017C206.727 95.7671 207.532 95.8998 208.399 95.8998C209.036 95.8998 209.593 95.8556 210.071 95.7671C210.548 95.6787 210.92 95.6079 211.185 95.5548L212.619 102.11C212.159 102.287 211.504 102.464 210.655 102.641C209.805 102.836 208.744 102.942 207.47 102.96C205.382 102.995 203.436 102.623 201.631 101.845C199.826 101.066 198.366 99.8632 197.252 98.2354C196.137 96.6076 195.58 94.564 195.58 92.1046V51.8962ZM234.796 103.251C230.779 103.251 227.32 102.393 224.419 100.677C221.535 98.9431 219.305 96.5102 217.73 93.3785C216.173 90.2291 215.395 86.54 215.395 82.3112C215.395 78.1356 216.173 74.4553 217.73 71.2705C219.305 68.0857 221.499 65.5998 224.312 63.8127C227.143 62.0257 230.452 61.1322 234.238 61.1322C236.539 61.1322 238.768 61.5126 240.927 62.2734C243.085 63.0342 245.023 64.2285 246.739 65.8563C248.455 67.4841 249.809 69.5985 250.8 72.1994C251.79 74.7827 252.286 77.9233 252.286 81.6212V84.4345H219.88V78.4895H244.51C244.51 76.4016 244.085 74.5527 243.236 72.9426C242.386 71.3148 241.192 70.032 239.653 69.0942C238.131 68.1565 236.344 67.6876 234.292 67.6876C232.062 67.6876 230.116 68.2361 228.453 69.3331C226.807 70.4124 225.533 71.8279 224.631 73.5795C223.746 75.3135 223.304 77.1978 223.304 79.2326V83.8771C223.304 86.6019 223.782 88.9197 224.737 90.8306C225.71 92.7415 227.064 94.2012 228.798 95.2098C230.532 96.2006 232.558 96.696 234.875 96.696C236.379 96.696 237.751 96.4837 238.989 96.0591C240.228 95.6167 241.298 94.9621 242.201 94.0951C243.103 93.2281 243.793 92.1577 244.271 90.8837L251.782 92.2373C251.18 94.449 250.101 96.3864 248.544 98.0496C247.004 99.6951 245.067 100.978 242.731 101.898C240.413 102.8 237.768 103.251 234.796 103.251ZM258.101 102.429V61.663H265.771V68.1388H266.196C266.939 65.9448 268.248 64.2197 270.124 62.9634C272.017 61.6895 274.158 61.0525 276.546 61.0525C277.042 61.0525 277.626 61.0702 278.298 61.1056C278.988 61.141 279.528 61.1852 279.917 61.2383V68.8288C279.599 68.7404 279.032 68.643 278.219 68.5369C277.405 68.413 276.591 68.3511 275.777 68.3511C273.901 68.3511 272.229 68.7492 270.761 69.5454C269.31 70.3239 268.16 71.4121 267.31 72.8098C266.461 74.1899 266.037 75.7647 266.037 77.534V102.429H258.101ZM497.473 65.7502H489.192C488.874 63.9808 488.281 62.4238 487.414 61.0791C486.547 59.7344 485.485 58.5931 484.229 57.6554C482.973 56.7176 481.566 56.0099 480.009 55.5322C478.47 55.0545 476.833 54.8156 475.099 54.8156C471.968 54.8156 469.163 55.603 466.686 57.1777C464.227 58.7524 462.28 61.0614 460.847 64.1047C459.432 67.1479 458.724 70.8636 458.724 75.2515C458.724 79.6749 459.432 83.4082 460.847 86.4515C462.28 89.4948 464.235 91.7949 466.713 93.352C469.19 94.909 471.976 95.6875 475.073 95.6875C476.789 95.6875 478.417 95.4575 479.956 94.9975C481.513 94.5197 482.92 93.8208 484.176 92.9008C485.432 91.9807 486.494 90.8572 487.361 89.5302C488.246 88.1855 488.856 86.6461 489.192 84.9122L497.473 84.9387C497.03 87.6104 496.172 90.0698 494.898 92.3169C493.642 94.5463 492.023 96.4749 490.041 98.1027C488.077 99.7128 485.83 100.96 483.3 101.845C480.77 102.729 478.01 103.172 475.02 103.172C470.313 103.172 466.12 102.057 462.44 99.8278C458.759 97.5807 455.858 94.3693 453.734 90.1937C451.629 86.018 450.576 81.0373 450.576 75.2515C450.576 69.4481 451.638 64.4674 453.761 60.3094C455.884 56.1338 458.786 52.9312 462.466 50.7019C466.146 48.4548 470.331 47.3313 475.02 47.3313C477.904 47.3313 480.593 47.7471 483.088 48.5786C485.6 49.3925 487.856 50.5957 489.856 52.1881C491.855 53.7628 493.509 55.6914 494.819 57.9739C496.128 60.2386 497.013 62.8307 497.473 65.7502ZM520.831 103.251C517.009 103.251 513.674 102.376 510.825 100.624C507.977 98.8723 505.765 96.4218 504.19 93.2723C502.616 90.1229 501.828 86.4427 501.828 82.2316C501.828 78.0029 502.616 74.3049 504.19 71.1378C505.765 67.9707 507.977 65.5113 510.825 63.7596C513.674 62.008 517.009 61.1322 520.831 61.1322C524.653 61.1322 527.988 62.008 530.837 63.7596C533.685 65.5113 535.897 67.9707 537.472 71.1378C539.046 74.3049 539.834 78.0029 539.834 82.2316C539.834 86.4427 539.046 90.1229 537.472 93.2723C535.897 96.4218 533.685 98.8723 530.837 100.624C527.988 102.376 524.653 103.251 520.831 103.251ZM520.857 96.5899C523.335 96.5899 525.387 95.9352 527.015 94.6259C528.643 93.3166 529.846 91.5738 530.624 89.3975C531.42 87.2212 531.819 84.8237 531.819 82.2051C531.819 79.6041 531.42 77.2155 530.624 75.0392C529.846 72.8452 528.643 71.0847 527.015 69.7577C525.387 68.4307 523.335 67.7672 520.857 67.7672C518.363 67.7672 516.293 68.4307 514.647 69.7577C513.019 71.0847 511.807 72.8452 511.011 75.0392C510.233 77.2155 509.843 79.6041 509.843 82.2051C509.843 84.8237 510.233 87.2212 511.011 89.3975C511.807 91.5738 513.019 93.3166 514.647 94.6259C516.293 95.9352 518.363 96.5899 520.857 96.5899ZM560.963 103.225C557.672 103.225 554.735 102.384 552.151 100.704C549.586 99.005 547.569 96.5899 546.1 93.4581C544.649 90.3087 543.924 86.5311 543.924 82.1255C543.924 77.7198 544.658 73.9511 546.127 70.8193C547.613 67.6876 549.648 65.2901 552.231 63.6269C554.814 61.9638 557.742 61.1322 561.016 61.1322C563.546 61.1322 565.581 61.5568 567.12 62.4061C568.677 63.2377 569.88 64.2108 570.729 65.3255C571.596 66.4402 572.269 67.4222 572.747 68.2715H573.224V48.0744H581.16V102.429H573.41V96.0856H572.747C572.269 96.9526 571.579 97.9434 570.676 99.0581C569.792 100.173 568.571 101.146 567.014 101.978C565.457 102.809 563.44 103.225 560.963 103.225ZM562.714 96.4572C564.997 96.4572 566.925 95.8556 568.5 94.6524C570.093 93.4316 571.296 91.7419 572.11 89.5833C572.941 87.4247 573.357 84.9122 573.357 82.0458C573.357 79.2149 572.95 76.7378 572.136 74.6146C571.322 72.4914 570.128 70.837 568.553 69.6516C566.978 68.4661 565.032 67.8734 562.714 67.8734C560.326 67.8734 558.335 68.4926 556.743 69.7312C555.15 70.9697 553.947 72.6595 553.133 74.8004C552.337 76.9413 551.939 79.3564 551.939 82.0458C551.939 84.7706 552.346 87.2212 553.16 89.3975C553.974 91.5738 555.177 93.2989 556.769 94.5728C558.379 95.829 560.361 96.4572 562.714 96.4572ZM607.066 103.251C603.049 103.251 599.59 102.393 596.689 100.677C593.805 98.9431 591.575 96.5102 590.001 93.3785C588.444 90.2291 587.665 86.54 587.665 82.3112C587.665 78.1356 588.444 74.4553 590.001 71.2705C591.575 68.0857 593.769 65.5998 596.582 63.8127C599.413 62.0257 602.722 61.1322 606.509 61.1322C608.809 61.1322 611.038 61.5126 613.197 62.2734C615.355 63.0342 617.293 64.2285 619.009 65.8563C620.725 67.4841 622.079 69.5985 623.07 72.1994C624.06 74.7827 624.556 77.9233 624.556 81.6212V84.4345H592.15V78.4895H616.78C616.78 76.4016 616.355 74.5527 615.506 72.9426C614.656 71.3148 613.462 70.032 611.923 69.0942C610.401 68.1565 608.614 67.6876 606.562 67.6876C604.332 67.6876 602.386 68.2361 600.723 69.3331C599.077 70.4124 597.803 71.8279 596.901 73.5795C596.016 75.3135 595.574 77.1978 595.574 79.2326V83.8771C595.574 86.6019 596.052 88.9197 597.007 90.8306C597.98 92.7415 599.334 94.2012 601.068 95.2098C602.802 96.2006 604.828 96.696 607.145 96.696C608.649 96.696 610.021 96.4837 611.259 96.0591C612.498 95.6167 613.568 94.9621 614.471 94.0951C615.373 93.2281 616.063 92.1577 616.541 90.8837L624.052 92.2373C623.45 94.449 622.371 96.3864 620.814 98.0496C619.274 99.6951 617.337 100.978 615.001 101.898C612.684 102.8 610.038 103.251 607.066 103.251ZM651.072 45.5265L633.556 110.603H626.47L643.986 45.5265H651.072ZM692.007 84.0098L656.762 101.102V92.9804L682.771 81.1435L682.506 81.5947V80.4534L682.771 80.9311L656.762 69.0677V60.9729L692.007 78.0648V84.0098Z" fill="white"/>
</svg>
