<svg width="266" height="62" viewBox="0 0 266 62" fill="none" xmlns="http://www.w3.org/2000/svg">
<path d="M116 46.5V54.25" stroke="#317BC0" stroke-width="3.875" stroke-linecap="round" stroke-linejoin="round"/>
<path d="M105.344 36.8125C106.949 36.8125 108.25 35.5113 108.25 33.9062C108.25 32.3012 106.949 31 105.344 31C103.739 31 102.438 32.3012 102.438 33.9062C102.438 35.5113 103.739 36.8125 105.344 36.8125Z" fill="#317BC0"/>
<path d="M126.656 36.8125C128.261 36.8125 129.563 35.5113 129.563 33.9062C129.563 32.3012 128.261 31 126.656 31C125.051 31 123.75 32.3012 123.75 33.9062C123.75 35.5113 125.051 36.8125 126.656 36.8125Z" fill="#317BC0"/>
<path d="M116 11.625V21.3125" stroke="#317BC0" stroke-width="3.875" stroke-linecap="round" stroke-linejoin="round"/>
<path d="M119.875 42.625L116 46.5L112.125 42.625" stroke="#317BC0" stroke-width="3.875" stroke-linecap="round" stroke-linejoin="round"/>
<path d="M108.25 12.8359V21.3125" stroke="#317BC0" stroke-width="3.875" stroke-linecap="round" stroke-linejoin="round"/>
<path d="M123.75 12.8359V21.3125" stroke="#317BC0" stroke-width="3.875" stroke-linecap="round" stroke-linejoin="round"/>
<path d="M92.75 32.9375V12.4242C92.7506 12.0401 92.8655 11.6647 93.0799 11.346C93.2944 11.0272 93.5988 10.7794 93.9544 10.634C94.31 10.4887 94.7008 10.4523 95.0772 10.5296C95.4535 10.6069 95.7984 10.7943 96.068 11.068L101.372 16.3719C105.609 13.255 110.74 11.59 116 11.625C121.26 11.59 126.391 13.255 130.628 16.3719L135.932 11.068C136.202 10.7943 136.546 10.6069 136.923 10.5296C137.299 10.4523 137.69 10.4887 138.046 10.634C138.401 10.7794 138.706 11.0272 138.92 11.346C139.135 11.6647 139.249 12.0401 139.25 12.4242V32.9375C139.25 44.7078 128.836 54.25 116 54.25C103.164 54.25 92.75 44.7078 92.75 32.9375Z" stroke="#317BC0" stroke-width="3.875" stroke-linecap="round" stroke-linejoin="round"/>
<path d="M2.97385 32.8275V30.3964L17.3873 23.4067V26.717L6.75086 31.5685L6.84854 31.3732V31.8399L6.75086 31.6554L17.3873 36.496V39.8172L2.97385 32.8275ZM25.9274 42.4437L19.7627 20.2158H23.29L27.6206 37.4294H27.8268L32.331 20.2158H35.8258L40.33 37.4403H40.5362L44.8559 20.2158H48.3941L42.2185 42.4437H38.8431L34.1652 25.7945H33.9916L29.3137 42.4437H25.9274ZM55.5125 42.7802C53.87 42.7802 52.4554 42.4293 51.2688 41.7274C50.0894 41.0183 49.1777 40.0234 48.5337 38.7427C47.897 37.4547 47.5786 35.9461 47.5786 34.2168C47.5786 32.5092 47.897 31.0042 48.5337 29.7017C49.1777 28.3993 50.0749 27.3827 51.2253 26.6519C52.3831 25.9211 53.7361 25.5557 55.2845 25.5557C56.2252 25.5557 57.1369 25.7113 58.0196 26.0224C58.9024 26.3336 59.6947 26.822 60.3965 27.4876C61.0984 28.1533 61.6519 29.018 62.0571 30.0816C62.4623 31.138 62.6649 32.4224 62.6649 33.9346V35.0851H49.4128V32.6539H59.4848C59.4848 31.8001 59.3112 31.044 58.9639 30.3855C58.6166 29.7198 58.1282 29.1953 57.4987 28.8118C56.8764 28.4283 56.1456 28.2365 55.3063 28.2365C54.3946 28.2365 53.5986 28.4608 52.9185 28.9094C52.2456 29.3508 51.7246 29.9297 51.3556 30.646C50.9938 31.3551 50.8129 32.1257 50.8129 32.9578V34.8571C50.8129 35.9714 51.0083 36.9193 51.399 37.7008C51.797 38.4822 52.3505 39.0791 53.0596 39.4916C53.7687 39.8968 54.5972 40.0994 55.545 40.0994C56.1601 40.0994 56.7208 40.0125 57.2273 39.8389C57.7338 39.658 58.1716 39.3903 58.5406 39.0357C58.9096 38.6812 59.1918 38.2434 59.3872 37.7225L62.4587 38.276C62.2127 39.1804 61.7713 39.9728 61.1346 40.6529C60.5051 41.3258 59.7128 41.8504 58.7577 42.2267C57.8098 42.5957 56.7281 42.7802 55.5125 42.7802ZM65.3035 42.4437V20.2158H68.5487V28.4753H68.744C68.9322 28.128 69.2035 27.7264 69.5581 27.2706C69.9126 26.8147 70.4046 26.4168 71.0341 26.0767C71.6636 25.7294 72.4957 25.5557 73.5304 25.5557C74.8763 25.5557 76.0774 25.8958 77.1338 26.576C78.1902 27.2561 79.0187 28.2365 79.6192 29.5172C80.227 30.798 80.5309 32.3391 80.5309 34.1408C80.5309 35.9425 80.2306 37.4873 79.6301 38.7753C79.0295 40.056 78.2047 41.0436 77.1555 41.7382C76.1063 42.4256 74.9088 42.7693 73.563 42.7693C72.55 42.7693 71.7215 42.5993 71.0775 42.2592C70.4408 41.9191 69.9415 41.5212 69.5798 41.0653C69.218 40.6095 68.9394 40.2043 68.744 39.8497H68.4727V42.4437H65.3035ZM68.4836 34.1083C68.4836 35.2804 68.6536 36.3079 68.9937 37.1906C69.3337 38.0734 69.8258 38.7644 70.4697 39.2637C71.1137 39.7557 71.9024 40.0017 72.8358 40.0017C73.8054 40.0017 74.6158 39.7448 75.267 39.2311C75.9182 38.7101 76.4102 38.0047 76.7431 37.1147C77.0831 36.2247 77.2532 35.2225 77.2532 34.1083C77.2532 33.0084 77.0867 32.0208 76.7539 31.1453C76.4283 30.2697 75.9363 29.5787 75.2778 29.0722C74.6266 28.5658 73.8126 28.3125 72.8358 28.3125C71.8952 28.3125 71.0992 28.5549 70.448 29.0397C69.8041 29.5245 69.3157 30.201 68.9828 31.0693C68.65 31.9376 68.4836 32.9506 68.4836 34.1083ZM155.227 20.2158V42.4437H151.873V20.2158H155.227ZM171.12 29.8428L168.179 30.3638C168.056 29.9876 167.861 29.6294 167.593 29.2893C167.332 28.9492 166.978 28.6707 166.529 28.4536C166.081 28.2365 165.52 28.128 164.847 28.128C163.928 28.128 163.161 28.3342 162.546 28.7466C161.931 29.1518 161.623 29.6764 161.623 30.3204C161.623 30.8775 161.83 31.3262 162.242 31.6662C162.654 32.0063 163.32 32.2849 164.239 32.5019L166.887 33.1097C168.421 33.4643 169.565 34.0106 170.317 34.7486C171.07 35.4867 171.446 36.4454 171.446 37.6248C171.446 38.6233 171.156 39.5133 170.577 40.2947C170.006 41.069 169.206 41.6767 168.179 42.1181C167.159 42.5595 165.976 42.7802 164.63 42.7802C162.763 42.7802 161.24 42.3822 160.06 41.5863C158.881 40.7831 158.158 39.6435 157.89 38.1675L161.026 37.6899C161.222 38.5075 161.623 39.1262 162.231 39.5458C162.839 39.9583 163.631 40.1645 164.608 40.1645C165.672 40.1645 166.522 39.9438 167.159 39.5024C167.795 39.0538 168.114 38.5075 168.114 37.8636C168.114 37.3426 167.918 36.9048 167.528 36.5503C167.144 36.1957 166.554 35.928 165.759 35.7471L162.937 35.1285C161.381 34.7739 160.231 34.2096 159.485 33.4353C158.747 32.6611 158.378 31.6807 158.378 30.4941C158.378 29.51 158.653 28.649 159.203 27.9109C159.753 27.1729 160.513 26.5977 161.482 26.1852C162.452 25.7656 163.563 25.5557 164.814 25.5557C166.616 25.5557 168.034 25.9464 169.069 26.7279C170.104 27.5021 170.787 28.5404 171.12 29.8428ZM186.284 29.8428L183.342 30.3638C183.219 29.9876 183.024 29.6294 182.756 29.2893C182.496 28.9492 182.141 28.6707 181.693 28.4536C181.244 28.2365 180.683 28.128 180.01 28.128C179.091 28.128 178.324 28.3342 177.709 28.7466C177.094 29.1518 176.787 29.6764 176.787 30.3204C176.787 30.8775 176.993 31.3262 177.406 31.6662C177.818 32.0063 178.484 32.2849 179.403 32.5019L182.051 33.1097C183.585 33.4643 184.728 34.0106 185.481 34.7486C186.233 35.4867 186.609 36.4454 186.609 37.6248C186.609 38.6233 186.32 39.5133 185.741 40.2947C185.169 41.069 184.37 41.6767 183.342 42.1181C182.322 42.5595 181.139 42.7802 179.793 42.7802C177.926 42.7802 176.403 42.3822 175.224 41.5863C174.045 40.7831 173.321 39.6435 173.053 38.1675L176.19 37.6899C176.385 38.5075 176.787 39.1262 177.395 39.5458C178.002 39.9583 178.795 40.1645 179.772 40.1645C180.835 40.1645 181.685 39.9438 182.322 39.5024C182.959 39.0538 183.277 38.5075 183.277 37.8636C183.277 37.3426 183.082 36.9048 182.691 36.5503C182.308 36.1957 181.718 35.928 180.922 35.7471L178.1 35.1285C176.544 34.7739 175.394 34.2096 174.649 33.4353C173.911 32.6611 173.542 31.6807 173.542 30.4941C173.542 29.51 173.817 28.649 174.367 27.9109C174.916 27.1729 175.676 26.5977 176.646 26.1852C177.615 25.7656 178.726 25.5557 179.978 25.5557C181.779 25.5557 183.198 25.9464 184.232 26.7279C185.267 27.5021 185.951 28.5404 186.284 29.8428ZM199.515 35.5301V25.7728H202.771V42.4437H199.58V39.5567H199.407C199.023 40.4467 198.408 41.1883 197.562 41.7817C196.722 42.3678 195.677 42.6608 194.425 42.6608C193.354 42.6608 192.406 42.4256 191.581 41.9553C190.764 41.4778 190.12 40.7723 189.649 39.8389C189.186 38.9055 188.955 37.7514 188.955 36.3766V25.7728H192.2V35.9859C192.2 37.1219 192.515 38.0264 193.144 38.6993C193.774 39.3722 194.591 39.7087 195.597 39.7087C196.205 39.7087 196.809 39.5567 197.41 39.2528C198.017 38.9489 198.52 38.4894 198.918 37.8744C199.324 37.2594 199.522 36.4779 199.515 35.5301ZM213.094 42.7802C211.452 42.7802 210.037 42.4293 208.85 41.7274C207.671 41.0183 206.759 40.0234 206.115 38.7427C205.479 37.4547 205.16 35.9461 205.16 34.2168C205.16 32.5092 205.479 31.0042 206.115 29.7017C206.759 28.3993 207.657 27.3827 208.807 26.6519C209.965 25.9211 211.318 25.5557 212.866 25.5557C213.807 25.5557 214.719 25.7113 215.601 26.0224C216.484 26.3336 217.276 26.822 217.978 27.4876C218.68 28.1533 219.234 29.018 219.639 30.0816C220.044 31.138 220.247 32.4224 220.247 33.9346V35.0851H206.994V32.6539H217.067C217.067 31.8001 216.893 31.044 216.546 30.3855C216.198 29.7198 215.71 29.1953 215.08 28.8118C214.458 28.4283 213.727 28.2365 212.888 28.2365C211.976 28.2365 211.18 28.4608 210.5 28.9094C209.827 29.3508 209.306 29.9297 208.937 30.646C208.575 31.3551 208.395 32.1257 208.395 32.9578V34.8571C208.395 35.9714 208.59 36.9193 208.981 37.7008C209.379 38.4822 209.932 39.0791 210.641 39.4916C211.35 39.8968 212.179 40.0994 213.127 40.0994C213.742 40.0994 214.302 40.0125 214.809 39.8389C215.315 39.658 215.753 39.3903 216.122 39.0357C216.491 38.6812 216.773 38.2434 216.969 37.7225L220.04 38.276C219.794 39.1804 219.353 39.9728 218.716 40.6529C218.087 41.3258 217.294 41.8504 216.339 42.2267C215.391 42.5957 214.31 42.7802 213.094 42.7802ZM235.117 29.8428L232.176 30.3638C232.053 29.9876 231.857 29.6294 231.59 29.2893C231.329 28.9492 230.975 28.6707 230.526 28.4536C230.077 28.2365 229.517 28.128 228.844 28.128C227.925 28.128 227.158 28.3342 226.543 28.7466C225.928 29.1518 225.62 29.6764 225.62 30.3204C225.62 30.8775 225.826 31.3262 226.239 31.6662C226.651 32.0063 227.317 32.2849 228.236 32.5019L230.884 33.1097C232.418 33.4643 233.561 34.0106 234.314 34.7486C235.066 35.4867 235.443 36.4454 235.443 37.6248C235.443 38.6233 235.153 39.5133 234.574 40.2947C234.003 41.069 233.203 41.6767 232.176 42.1181C231.155 42.5595 229.972 42.7802 228.627 42.7802C226.76 42.7802 225.237 42.3822 224.057 41.5863C222.878 40.7831 222.154 39.6435 221.887 38.1675L225.023 37.6899C225.219 38.5075 225.62 39.1262 226.228 39.5458C226.836 39.9583 227.628 40.1645 228.605 40.1645C229.669 40.1645 230.519 39.9438 231.155 39.5024C231.792 39.0538 232.111 38.5075 232.111 37.8636C232.111 37.3426 231.915 36.9048 231.525 36.5503C231.141 36.1957 230.551 35.928 229.755 35.7471L226.933 35.1285C225.378 34.7739 224.227 34.2096 223.482 33.4353C222.744 32.6611 222.375 31.6807 222.375 30.4941C222.375 29.51 222.65 28.649 223.2 27.9109C223.75 27.1729 224.51 26.5977 225.479 26.1852C226.449 25.7656 227.559 25.5557 228.811 25.5557C230.613 25.5557 232.031 25.9464 233.066 26.7279C234.1 27.5021 234.784 28.5404 235.117 29.8428ZM246.254 19.1739L239.091 45.7866H236.193L243.356 19.1739H246.254ZM262.994 34.9114L248.58 41.9011V38.5799L259.217 33.7392L259.108 33.9238V33.4571L259.217 33.6524L248.58 28.8009V25.4906L262.994 32.4802V34.9114Z" fill="white"/>
</svg>
